# xmcd
#
# Track frame offsets:
#	150
#	14301
#	25768
#	43344
#	57726
#	73332
#	86023
#	97842
#	112049
#	127104
#	140667
#	153347
#
# Disc length: 2219 seconds
# Revision: 0
# Processed by: cddbd v1.5.2PL0 Copyright (c) Steve Scherf et al.
# Submitted via: dBpowerAMP V12.0
#
DISCID=ae08a90c
DTITLE=The Bluegrass Brothers - Generations
DYEAR=2014
DGENRE=Country
TTITLE0=Memories of My Childhood
TTITLE1=One More Mountain
TTITLE2=Too Long
TTITLE3=The Merger
TTITLE4=Don't Bother To Waste My Time
TTITLE5=Grand Reunion
TTITLE6=When The Mountain Fell
TTITLE7=Ball and Chain
TTITLE8=Homeplace  Memories
TTITLE9=Blue Ridge Mountain Man
TTITLE10=Backside of Thirty
TTITLE11=Moonshine Man
EXTD=
EXTT0=
EXTT1=
EXTT2=
EXTT3=
EXTT4=
EXTT5=
EXTT6=
EXTT7=
EXTT8=
EXTT9=
EXTT10=
EXTT11=
PLAYORDER=
